<svg width="203" height="32" viewBox="0 0 203 32" fill="none" xmlns="http://www.w3.org/2000/svg">
<path d="M18.0216 23V8.28125H20.4187L28.3037 18.4582V8.28125H30.8479V23H28.6822L20.5658 12.5287V23H18.0216ZM37.3671 23V8.28125H48.322V10.6363H39.9534V14.6524H47.3758V17.0074H39.9534V23H37.3671ZM57.495 23V10.6783H52.806V8.28125H64.7702V10.6783H60.0813V23H57.495ZM79.2227 23V8.28125H81.9772L86.4559 15.2411L90.9346 8.28125H93.6891V23H91.1028V12.4446L86.4559 19.3834H86.3718L81.7669 12.4866V23H79.2227ZM106.246 23.2313C102.44 23.2313 99.9796 21.0235 99.9796 16.755V8.28125H102.566V16.6499C102.566 19.4044 103.954 20.8342 106.288 20.8342C108.58 20.8342 109.988 19.4675 109.988 16.755V8.28125H112.575V16.6289C112.575 21.0235 110.093 23.2313 106.246 23.2313ZM124.01 23.2103C121.739 23.2103 119.636 22.4533 117.87 20.8553L119.426 19.0049C120.856 20.2455 122.243 20.9183 124.073 20.9183C125.671 20.9183 126.68 20.1614 126.68 19.068V19.0259C126.68 17.9956 126.091 17.3858 123.358 16.7761C120.225 16.0401 118.459 15.0729 118.459 12.3815V12.3394C118.459 9.81621 120.561 8.07098 123.484 8.07098C125.65 8.07098 127.311 8.72281 128.825 9.92134L127.437 11.8768C126.091 10.8886 124.788 10.3629 123.442 10.3629C121.928 10.3629 121.045 11.1199 121.045 12.1081V12.1502C121.045 13.2856 121.718 13.7903 124.556 14.4631C127.647 15.2621 129.266 16.3135 129.266 18.7736V18.8157C129.266 21.5912 127.101 23.2103 124.01 23.2103ZM135.041 23V8.28125H145.954V10.5942H137.628V14.4211H145.008V16.755H137.628V20.6871H146.059V23H135.041ZM157.896 23.2313C154.09 23.2313 151.63 21.0235 151.63 16.755V8.28125H154.216V16.6499C154.216 19.4044 155.604 20.8342 157.938 20.8342C160.23 20.8342 161.639 19.4675 161.639 16.755V8.28125H164.225V16.6289C164.225 21.0235 161.744 23.2313 157.896 23.2313ZM170.509 23V8.28125H173.263L177.742 15.2411L182.22 8.28125H184.975V23H182.389V12.4446L177.742 19.3834H177.658L173.053 12.4866V23H170.509Z" fill="white"/>
</svg>
